<?xml version="1.0" standalone="no"?>
<!DOCTYPE svg PUBLIC "-//W3C//DTD SVG 20010904//EN"
 "http://www.w3.org/TR/2001/REC-SVG-20010904/DTD/svg10.dtd">
<svg version="1.0" xmlns="http://www.w3.org/2000/svg"
 width="195.000000pt" height="196.000000pt" viewBox="0 0 195.000000 196.000000"
 preserveAspectRatio="xMidYMid meet">
<metadata>
Created by potrace 1.12, written by Peter Selinger 2001-2015
</metadata>
<g transform="translate(0.000000,196.000000) scale(0.100000,-0.100000)"
fill="#000000" stroke="none">
<path d="M1635 1850 l-100 -100 95 -95 95 -95 -85 -85 c-47 -47 -90 -85 -97
-85 -6 0 -51 43 -99 95 -49 52 -93 95 -99 95 -6 0 -55 -45 -110 -100 l-100
-100 103 -103 102 -102 -57 -55 c-32 -31 -73 -69 -91 -85 l-32 -29 -100 99
-100 100 -103 -103 -102 -102 102 -102 103 -103 95 95 95 95 95 -95 c52 -52
95 -99 95 -105 0 -6 -38 -49 -85 -95 l-85 -85 -98 98 -97 97 -95 -95 -95 -95
-95 95 -95 94 -103 -101 -103 -102 96 -96 95 -95 -87 -88 -88 -87 -97 97 -98
98 -100 -100 c-55 -55 -100 -102 -100 -106 0 -3 43 -52 96 -107 l96 -102 101
95 100 96 93 -98 92 -98 99 98 98 97 94 -94 94 -95 99 91 99 92 94 -94 95 -95
95 95 95 95 89 -89 89 -89 101 94 c56 52 101 98 101 104 0 5 -42 51 -92 102
l-93 93 94 94 94 95 -51 58 c-27 32 -69 76 -91 98 l-41 39 95 96 95 95 -95 95
-95 95 95 95 95 96 -91 98 -92 97 94 95 94 94 -100 100 c-55 55 -102 100 -105
100 -3 0 -50 -45 -105 -100z m-2 -762 l-88 -88 -92 92 -93 93 87 87 88 88 92
-92 93 -93 -87 -87z m-4 -383 l-91 -90 -84 90 -84 89 87 88 88 88 87 -87 88
-88 -91 -90z m-756 -387 l-88 -88 -87 87 -88 88 87 87 88 88 87 -87 88 -88
-87 -87z m384 -5 l-87 -88 -90 90 -90 90 87 87 88 88 90 -90 90 -90 -88 -87z
m378 177 l80 -80 -88 -88 -87 -87 -82 83 -83 82 85 85 c46 47 87 85 90 85 3 0
41 -36 85 -80z"/>
</g>
</svg>
