<?xml version="1.0" standalone="no"?>
<!DOCTYPE svg PUBLIC "-//W3C//DTD SVG 20010904//EN"
 "http://www.w3.org/TR/2001/REC-SVG-20010904/DTD/svg10.dtd">
<svg version="1.0" xmlns="http://www.w3.org/2000/svg"
 width="76.000000pt" height="132.000000pt" viewBox="0 0 76.000000 132.000000"
 preserveAspectRatio="xMidYMid meet">
<metadata>
Created by potrace 1.12, written by Peter Selinger 2001-2015
</metadata>
<g transform="translate(0.000000,132.000000) scale(0.100000,-0.100000)"
fill="#000000" stroke="none">
<path d="M10 1235 l0 -85 70 0 70 0 0 -60 0 -60 -75 0 -75 0 0 -85 0 -85 75 0
75 0 0 -60 0 -60 -75 0 -75 0 0 -80 0 -80 80 0 80 0 0 -65 0 -65 -70 0 -70 0
0 -80 0 -80 70 0 70 0 0 -65 0 -65 -70 0 -70 0 0 -80 0 -80 80 0 80 0 0 70 0
70 75 0 75 0 0 75 0 75 75 0 75 0 0 70 0 70 70 0 70 0 0 75 0 75 70 0 70 0 0
80 0 80 -75 0 -75 0 0 70 0 70 -70 0 -70 0 0 75 0 75 -75 0 -75 0 0 70 0 70
-75 0 -75 0 0 75 0 75 -80 0 -80 0 0 -85z m290 -290 l0 -65 -65 0 -65 0 0 65
0 65 65 0 65 0 0 -65z m150 -145 l0 -60 -65 0 -65 0 0 60 0 60 65 0 65 0 0
-60z m-140 -140 l0 -60 -70 0 -70 0 0 60 0 60 70 0 70 0 0 -60z m150 -145 l0
-65 -65 0 -65 0 0 65 0 65 65 0 65 0 0 -65z m-150 -145 l0 -60 -65 0 -65 0 0
60 0 60 65 0 65 0 0 -60z"/>
</g>
</svg>
