<?xml version="1.0" standalone="no"?>
<!DOCTYPE svg PUBLIC "-//W3C//DTD SVG 20010904//EN"
 "http://www.w3.org/TR/2001/REC-SVG-20010904/DTD/svg10.dtd">
<svg version="1.0" xmlns="http://www.w3.org/2000/svg"
 width="88.000000pt" height="142.000000pt" viewBox="0 0 88.000000 142.000000"
 preserveAspectRatio="xMidYMid meet">
<metadata>
Created by potrace 1.12, written by Peter Selinger 2001-2015
</metadata>
<g transform="translate(0.000000,142.000000) scale(0.100000,-0.100000)"
fill="#000000" stroke="none">
<path d="M0 1175 l0 -65 85 0 85 0 0 65 0 65 -85 0 -85 0 0 -65z"/>
<path d="M200 1015 l0 -65 80 0 80 0 0 65 0 65 -80 0 -80 0 0 -65z"/>
<path d="M0 865 l0 -65 85 0 85 0 0 65 0 65 -85 0 -85 0 0 -65z"/>
<path d="M380 865 l0 -65 70 0 70 0 0 65 0 65 -70 0 -70 0 0 -65z"/>
<path d="M200 710 l0 -70 85 0 85 0 0 70 0 70 -85 0 -85 0 0 -70z"/>
<path d="M550 710 l0 -70 75 0 75 0 0 70 0 70 -75 0 -75 0 0 -70z"/>
<path d="M2 308 c1 -172 4 -274 5 -225 l4 87 84 0 85 0 0 75 0 75 -85 0 -85 0
0 85 0 85 85 0 85 0 0 65 0 65 -90 0 -90 0 2 -312z"/>
<path d="M390 555 l0 -65 70 0 70 0 0 65 0 65 -70 0 -70 0 0 -65z"/>
<path d="M210 405 l0 -65 80 0 80 0 0 65 0 65 -80 0 -80 0 0 -65z"/>
</g>
</svg>
