<?xml version="1.0" standalone="no"?>
<!DOCTYPE svg PUBLIC "-//W3C//DTD SVG 20010904//EN"
 "http://www.w3.org/TR/2001/REC-SVG-20010904/DTD/svg10.dtd">
<svg version="1.0" xmlns="http://www.w3.org/2000/svg"
 width="88.000000pt" height="142.000000pt" viewBox="0 0 88.000000 142.000000"
 preserveAspectRatio="xMidYMid meet">
<metadata>
Created by potrace 1.12, written by Peter Selinger 2001-2015
</metadata>
<g transform="translate(0.000000,142.000000) scale(0.100000,-0.100000)"
fill="#000000" stroke="none">
<path d="M0 1330 l0 -90 85 0 85 0 0 -65 0 -65 -85 0 -85 0 0 -90 0 -90 85 0
85 0 0 -65 0 -65 -85 0 -85 0 0 -90 0 -90 90 0 90 0 0 -65 0 -65 -85 0 -85 0
0 -85 0 -85 85 0 85 0 0 -75 0 -75 -85 0 -85 0 0 -85 0 -85 100 0 100 0 0 75
0 75 90 0 90 0 0 85 0 85 80 0 80 0 0 75 0 75 90 0 90 0 0 75 0 75 75 0 75 0
0 90 0 90 -80 0 -80 0 0 75 0 75 -90 0 -90 0 0 80 0 80 -80 0 -80 0 0 75 0 75
-90 0 -90 0 0 80 0 80 -100 0 -100 0 0 -90z m360 -315 l0 -65 -80 0 -80 0 0
65 0 65 80 0 80 0 0 -65z m160 -150 l0 -65 -70 0 -70 0 0 65 0 65 70 0 70 0 0
-65z m-150 -155 l0 -70 -85 0 -85 0 0 70 0 70 85 0 85 0 0 -70z m330 0 l0 -70
-75 0 -75 0 0 70 0 70 75 0 75 0 0 -70z m-170 -155 l0 -65 -70 0 -70 0 0 65 0
65 70 0 70 0 0 -65z m-160 -150 l0 -65 -80 0 -80 0 0 65 0 65 80 0 80 0 0 -65z"/>
</g>
</svg>
